<?xml version="1.0" encoding="UTF-8" standalone="no"?>
<svg
   title="RedHat"
   id="bff6975a-7895-41ba-961f-0551f01536a3"
   data-name="Layer 1"
   viewBox="0 0 190.35 144"
   version="1.1"
   sodipodi:docname="redhat.svg"
   width="190.35001"
   height="144"
   inkscape:version="1.1.2 (0a00cf5339, 2022-02-04)"
   xmlns:inkscape="http://www.inkscape.org/namespaces/inkscape"
   xmlns:sodipodi="http://sodipodi.sourceforge.net/DTD/sodipodi-0.dtd"
   xmlns="http://www.w3.org/2000/svg"
   xmlns:svg="http://www.w3.org/2000/svg"
   xmlns:rdf="http://www.w3.org/1999/02/22-rdf-syntax-ns#"
   xmlns:cc="http://creativecommons.org/ns#"
   xmlns:dc="http://purl.org/dc/elements/1.1/">
  <sodipodi:namedview
     id="namedview1026"
     pagecolor="#ffffff"
     bordercolor="#666666"
     borderopacity="1.0"
     inkscape:pageshadow="2"
     inkscape:pageopacity="0.0"
     inkscape:pagecheckerboard="0"
     showgrid="false"
     fit-margin-top="0"
     fit-margin-left="0"
     fit-margin-right="0"
     fit-margin-bottom="0"
     inkscape:zoom="1.6785434"
     inkscape:cx="236.81246"
     inkscape:cy="165.02403"
     inkscape:window-width="1920"
     inkscape:window-height="983"
     inkscape:window-x="0"
     inkscape:window-y="0"
     inkscape:window-maximized="1"
     inkscape:current-layer="bff6975a-7895-41ba-961f-0551f01536a3" />
  <defs
     id="defs1017">
    <style
       id="style1015">.b185c6fe-daea-408b-9fe9-61f9c6069fbe{fill:#e00;}</style>
  </defs>
  <title
     id="title1019">RedHat</title>
  <path
     class="b185c6fe-daea-408b-9fe9-61f9c6069fbe"
     d="m 126.97,82.99 c 12.51,0 30.61,-2.58 30.61,-17.46 a 14,14 0 0 0 -0.31,-3.42 L 149.82,29.75 C 148.1,22.63 146.59,19.4 134.09,13.15 124.39,8.19 103.26,0 97.01,0 91.19,0 89.5,7.5 82.56,7.5 75.88,7.5 70.92,1.9 64.67,1.9 c -6,0 -9.91,4.09 -12.93,12.5 0,0 -8.41,23.72 -9.49,27.16 a 6.36,6.36 0 0 0 -0.22,1.94 c 0,9.22 36.3,39.45 84.94,39.45 M 159.5,71.57 c 1.73,8.19 1.73,9.05 1.73,10.13 0,14 -15.74,21.77 -36.43,21.77 C 78.04,103.5 37.08,76.1 37.08,57.99 a 18.46,18.46 0 0 1 1.51,-7.33 C 21.77,51.5 0,54.5 0,73.72 0,105.2 74.59,144 133.65,144 c 45.28,0 56.7,-20.48 56.7,-36.65 0,-12.72 -11,-27.16 -30.83,-35.78"
     id="path1021" />
  <path
     d="m 159.5,71.57 c 1.73,8.19 1.73,9.05 1.73,10.13 0,14 -15.74,21.77 -36.43,21.77 C 78.04,103.5 37.08,76.1 37.08,57.99 a 18.46,18.46 0 0 1 1.51,-7.33 l 3.66,-9.06 a 6.42,6.42 0 0 0 -0.22,1.9 c 0,9.22 36.3,39.45 84.94,39.45 12.51,0 30.61,-2.58 30.61,-17.46 a 14,14 0 0 0 -0.31,-3.42 z"
     id="path1023" />
  <metadata
     id="metadata1108">
    <rdf:RDF>
      <cc:Work
         rdf:about="">
        <dc:title>RedHat</dc:title>
      </cc:Work>
    </rdf:RDF>
  </metadata>
</svg>
